<svg xmlns="http://www.w3.org/2000/svg" width="292" height="374" viewBox="285.445 114.14 292 374">
  <path fill="#fff" d="M507 127.726c-14.6 5.5-21.6 12.6-28.9 29-1.3 2.9-1.2 23.8.1 25.4.6.7 1.4 2.4 1.8 3.8 2.6 8.4 13.8 19.6 23.9 23.9 3.2 1.4 4.6 2.6 4.3 3.5-.3.8-2.8 4.6-5.6 8.5s-5.1 7.3-5.1 7.6c0 .3-.5 1.1-1 1.8-.6.7-3 4-5.5 7.4-2.5 3.5-4.9 6.3-5.3 6.3-1.1 0-7.6-7-9.1-9.7-.6-1.2-1.7-2.7-2.3-3.5-3.4-3.5-8.8-10.8-8.8-11.7 0-.9 2.8-7.7 5.1-12.3 1.3-2.6 1.1-15.6-.3-19.7-2.1-6-8.3-14.5-12.2-16.6-1.926-1.432-3.386-2.2-3.696-2.453-.284-.232-3.833-1.958-5.48-2.562-2-1-6.212-2.936-12.812-2.936-8.2 0-9.912 1.753-14.412 4.053-2.9 1.4-6.8 4.5-8.9 7.1-8.2 10-14.8 17.8-15.3 18.3-.3.3-2.1 2.5-4 5s-3.7 4.7-4 5c-.3.3-2.7 3.2-5.2 6.5s-5.6 7.1-6.8 8.5c-1.2 1.4-3.4 4.1-4.8 6-1.5 1.9-3.6 4.4-4.7 5.5-1.1 1.1-3.3 3.8-4.9 6-1.7 2.2-5.3 6.7-8 10-2.8 3.4-6.4 7.8-8.1 10-3.9 4.9-9.9 12.2-13.3 16-1.5 1.6-3.5 4.2-4.4 5.7-1 1.5-2.9 4-4.3 5.5-2.5 2.8-13.9 16.8-20.3 25-1.8 2.3-4.5 6.8-6 10-2.3 5-2.7 7-2.7 15.3 0 8 .4 10.2 2.3 14 5 9.6 13.1 15.8 24.2 18.3 2.7.6 34.2 1.3 79.5 1.6l75 .6.8 4c.5 2.2 1.4 7.8 2.2 12.5.7 4.7 1.8 11 2.3 14s2.4 14 4.1 24.5c7.4 44.4 7.6 44.9 14 49 7.6 4.7 17.2 2.9 25.5-4.9 6.6-6.3 6.8-14 1.1-45.1-2.9-15.8-5.3-30.1-6.5-39-.4-3.3-1.3-8.9-2-12.5-.6-3.6-1.5-8.8-2-11.5-.5-2.8-1.4-7.7-2-11-.6-3.3-1.5-9.2-2-13-1.4-12-4.1-17.5-10.1-20.6-3.6-1.8-6.3-1.9-56.9-1.9h-53.1l.7-2.2c.3-1.2 1-2.6 1.5-3.2.5-.6 3.3-4 6.2-7.6 2.8-3.6 6.2-7.6 7.5-9 1.2-1.3 2.2-2.7 2.2-3 0-.4 1.5-2.3 3.3-4.2 1.7-2 3.9-4.4 4.7-5.4.8-1.1 4.4-5.5 7.9-9.9s7-8.4 7.8-8.8c1.6-1 2.5-.2 9 8.3 2.3 3 5 6.4 6 7.5 1 1.1 3.9 4.7 6.3 8 6.7 9 11 13.1 15.8 14.9 5.6 2.1 9 2 15.7-.5 5-1.8 12.5-7.9 12.5-10 0-.4.6-1.4 1.3-2.1 2.2-2.3 11.3-15.2 12-17.1.3-.9 1.1-1.7 1.7-1.7.5 0 1-.4 1-1 0-.5 2.3-4.2 5-8.2 2.8-4 8-11.8 11.8-17.3 3.7-5.5 7-10.2 7.4-10.3.5-.2.8-.8.8-1.3 0-.4 1.5-2.9 3.3-5.5 2.8-4 3.2-5.3 3.2-11.2.1-6.6.2-6.8 4.5-11.3 6.4-6.6 8-9.1 10.8-16.7 2.1-5.8 2.4-23.4.5-25.4-.7-.6-1.3-2.2-1.3-3.3 0-2.8-6.8-13.1-11.1-17-5.7-5.1-9.2-7.1-16.8-9.9-9.6-3.4-17.1-3.4-26.6.2z"/>
</svg>
