<svg xmlns="http://www.w3.org/2000/svg" width="452" height="399" viewBox="0 0 452 399">
  <path fill="#fff" d="M354.5 25.5c-3.3.6-6.9 1.4-8 1.9-1.1.4-4.5 1.7-7.5 2.8-8 3.1-14.9 7.8-22 14.8-4.1 4.2-10 11-10 11.7 0 .2-1.2 2.5-2.7 5-1.5 2.6-3.8 7.8-5.2 11.7-2.3 6.4-2.6 8.5-2.6 22.6 0 14.3.2 16.1 2.7 23.2 1.5 4.2 3.8 9.5 5.2 11.7 1.4 2.2 2.6 4.4 2.6 4.7 0 .4.7 1.4 1.5 2.3.8.9 3.1 3.6 5.1 6.1 2 2.4 6.1 6.4 9.2 8.7 3.2 2.4 6.2 4.7 6.8 5.2.6.5 2.1 1.2 3.4 1.6 1.3.4 3.7 1.6 5.4 2.6 1.7 1.1 4 1.9 5.2 1.9 1.1 0 2.4.4 3 .9 3.1 3.1 25.7 4.1 36.3 1.7 6.7-1.5 20.7-7 22.1-8.7.3-.3 1.6-1.2 2.9-1.9 6.6-3.4 17.5-15.2 22.5-24.2 3.3-5.9 7.2-16.9 8.1-22.8 1.4-9 .5-29.7-1.5-32.5-.3-.6-1.3-3-2-5.5-5.1-17-23.9-35.8-42-42-1.9-.7-4.4-1.6-5.5-2-5.8-2.4-23.5-3.2-33-1.5zM287 146.3c0 .7 2 3.4 4.4 6 3.4 3.6 4.8 6.3 6.2 11.3 1.7 6.3 1.7 6.9 0 13.2-1.7 6.5-4.8 11.6-9.6 15.9-1.4 1.2-3 2.3-3.5 2.3-.602 0-2.602.8-4.5 1.9-2.9 1.5-6.2 1.9-19.5 2.1-8.8.1-18.2.4-21 .5-2.7.2-12.102.3-20.7.4l-15.7.1-3.2 5c-1.8 2.7-3.6 5-4.1 5-.4 0-.8.4-.8.9 0 .6-1.3 2.9-2.9 5.3-3.1 4.6-7.6 12.7-14.1 25-4 7.7-4.9 12.2-3.102 15.6 5.9 11.1 6.7 20 2.6 28.2-2.7 5.3-8.1 12-9.7 12-.5 0-2.1.9-3.5 2s-3.7 2-5 2c-4.3 0-6 1.7-7.2 7.2-.7 2.9-1.6 6.9-2.2 8.8-.5 1.9-1.1 4.4-1.3 5.5-.1 1.1-.6 3.1-.898 4.5-2 8.2-4.2 29.8-4.2 42.3v12.9l36-.2c19.8-.1 38.7-.4 42-.5 3.3-.2 9.8-.3 14.5-.4l8.6-.1.2-11.1c.4-15.6 1.2-20.5 6.4-40.4.5-2.2 1.4-4.8 1.9-5.7.5-1 .9-2.7.9-3.8 0-1.1.398-2.8.898-3.8.5-.9 1.9-4.4 3.1-7.7 1.2-3.3 3.2-8.3 4.6-11.1 1.3-2.8 2.4-5.6 2.4-6.2s.4-1.2.9-1.4c.5-.2 2-2.6 3.5-5.3 3.2-6.1 3.5-6.7 11.3-18.6 5.9-8.9 26-30.5 30.9-33.2 3.6-1.9 9.1-8.8 11.9-15 1.5-3.4 3.3-7.3 3.9-8.6 1.6-3.4 1.4-26.7-.2-28.3-.6-.6-1.2-1.9-1.2-2.8 0-2.1-4-9.8-6.8-12.9-1.3-1.4-3.1-3.8-4-5.3-.9-1.5-2.8-3.2-4.4-3.9-1.5-.6-2.8-1.5-2.8-1.9 0-.5-2.6-2.1-5.7-3.6C291.8 145.5 287 144.2 287 146.3z"/>
  <path fill="#fff" d="M220 149.1c-9.6.4-35.3 1-57 1.3-53.8.8-60.8 1.2-64.2 3.6-1.5 1.1-3.1 2-3.6 2-1.2 0-4.8 5.1-6.6 9.5-2.8 6.6-1.7 15.1 3.2 25.3 3 6 5.1 11 5.8 13.2.4 1.4 1.5 4.1 2.5 6 1.1 1.9 1.9 4.3 1.9 5.2 0 1 .5 1.8 1 1.8.6 0 1 .8 1 1.8s.3 2.1.6 2.5c.8.7 7.4 15.9 7.4 16.9 0 .6 3.1 7.8 8 18.3 1 2.2 2.2 5.1 2.6 6.5.4 1.4 1.5 4.1 2.5 6 1.1 1.9 1.9 3.9 1.9 4.4s1.398 3.8 3.1 7.4c5.3 11.4 11.8 15.6 22.9 15 7.6-.4 15.2-4.4 17.3-9.1.6-1.5 1.5-2.7 1.9-2.7.6 0 2.1-6.9 2.198-10 0-3.2-1.5-8.9-3.4-12.8-1.1-2.3-2-4.5-2-5s-1.3-3.6-3-7-3-6.5-3-6.9c.002-.7-9.098-22.2-12.598-29.9-1.3-2.8-2.4-5.5-2.4-6 0-.6-.9-2.7-2-4.9-1.3-2.5-1.6-4.3-1-4.9.5-.5 9.8-1 20.7-1.2 10.9-.1 26.3-.5 34.3-.9 8-.3 28.2-.8 45-1.1 28.6-.5 34.1-1 37.5-3.6 7.7-5.8 10.5-11.1 10.5-19.6 0-5.1-.5-7.3-2-9.2-1.1-1.4-2-2.8-2-3.2 0-1.4-4.7-5.3-8.9-7.6-4.1-2.1-5.398-2.2-23.398-2-10.602 0-27.102.4-36.702.9zM42.8 252.6c-1.4 3-.5 4.9 3.2 6.9 2.3 1.2 5.7 2.7 7 2.9.3.1 1.9.6 3.5 1.3 2.5 1 7.6 2.1 10.7 2.4.4 0 2.2.5 4 1 4.4 1.4 16.2 2.9 28.1 3.6 8.3.4 9.7.3 9.7-1 0-2.7-11.8-9.2-22.5-12.4-2.7-.8-5.4-1.8-6-2.3-.5-.4-3-1-5.5-1.3-6.5-.9-8.6-1.4-10.9-2.6C63 250.5 58 250 53 250c-8.8 0-9.1.1-10.2 2.6zm57.7 43.4c-1.1.5-3.3.9-4.9.9-1.6.1-4.6.6-6.5 1.2-2 .7-4.2 1.3-4.9 1.5-.7.2-1.4.4-1.7.5-.2.1-2.8.7-5.7 1.5-7.3 1.8-20.8 6.3-23.8 7.9-1.4.7-4.3 1.6-6.5 2-2.2.4-4.5 1.2-5 1.9-.6.6-1.7 1.2-2.5 1.4-2.3.5-13.1 5.3-14 6.198-.3.3-1.6 1.1-3 1.8-6.5 3.3-7.9 4.4-8.5 6.3-.4 1.2-.2 2.6.4 3.2 1.6 1.6 13.7 1 17.2-.8 1.6-.898 3.1-1.498 3.4-1.398 1 .1 7-1.2 9-2.1 2.8-1.1 8.9-3.5 9.5-3.6.3 0 1.4-.4 2.5-.8 1.1-.5 3.8-1.5 6-2.3 18.6-6.9 45.4-20.9 47.9-25.102.9-1.398-5.6-1.598-8.9-.198zm13.5 29.5c-3.6 1.8-7.6 3.8-8.9 4.5-2.2 1-5.4 3-20.6 12.9-5.1 3.3-5.5 3.6-8.7 6.3-1.4 1.3-3.9 3.2-5.5 4.3-5.6 4-14.9 14.1-16.7 18.3-2.4 5.4-1.2 9.2 3.1 9.2 3 0 10.5-3.4 13.7-6.3 1.1-.9 2.6-1.7 3.3-1.7.7 0 1.3-.4 1.3-1 0-.5 2.1-2.3 4.6-4.1 5-3.4 42.8-40.8 44.5-44 1.5-3-2.5-2.3-10.1 1.6z"/>
</svg>
