<svg xmlns="http://www.w3.org/2000/svg" width="397" height="286" viewBox="0 0 397 286">
  <path fill="#fff" d="M180.5 35.7c-6 .7-11.9 1.8-13 2.2-1.1.5-4.6 1.5-7.8 2.2-3.2.7-6 1.6-6.3 2.1-.3.4-1.5.8-2.8.8-1.2 0-4.1.9-6.4 2-2.2 1.1-4.8 2-5.7 2-.8 0-1.5.4-1.5 1 0 .5-.6 1-1.3 1-1.7 0-17.7 8.1-21.7 11-1.5 1.1-3.1 2-3.5 2-.5 0-8 5.3-11.2 8-.7.5-1.5 1-1.8 1-.6 0-12.2 9.2-17.8 14-4.2 3.6-19.3 18.8-25.7 25.8-6 6.5-7 7.7-11.4 13.7-1.7 2.2-3.2 4.2-3.5 4.5-.4.3-2.1 2.7-3.9 5.3-3.5 4.9-3.7 8-.9 10.9.7.7 2.6 3.1 4.2 5.3 1.7 2.2 3.2 4.2 3.5 4.5s2 2.4 3.7 4.7c4.1 5.3 4.2 8.7.3 15.3-1.6 2.8-3 5.7-3 6.5 0 .7-.4 1.5-.8 1.7-1 .4-12.2 23.1-12.2 24.7 0 .6-.6 2.2-1.4 3.4-5.9 9.1-8.1 28.1-4.1 36.1C26.7 252 35.9 262 37.8 262c.7 0 2.3.6 3.5 1.4 4 2.6 12.8 3.8 18.5 2.5 20.3-4.3 31.2-22.6 25-41.9-.6-1.9-1.7-4.9-2.5-6.7-.7-1.7-1.3-3.4-1.3-3.7 0-.6-5-11.8-8.1-17.9-4-8.1-1.5-8.9 5.8-2 7.4 7 29 23.3 30.9 23.3.3 0 1.9.9 3.4 2 4.7 3.4 15.1 9 16.6 9 .8 0 1.4.4 1.4 1 0 .5.8 1 1.8 1s2.2.4 2.7.9c.6.4 4.2 2 8 3.4 3.9 1.4 7.9 2.9 9 3.3 17 6.2 43.8 9.5 62.1 7.5 6-.7 13.6-1.4 16.9-1.7 3.3-.3 6.4-1 7-1.5.5-.5 1.6-.9 2.5-.9 2.6 0 19.2-5.6 24.9-8.4 3-1.4 6.3-2.6 7.2-2.6 1 0 1.9-.3 2.1-.8.2-.4 2.6-1.8 5.3-3.2 5-2.5 10.9-6.1 13.2-8 .7-.5 1.7-1 2.3-1s2-.8 3.1-1.8c1-1.1 3.1-2.5 4.6-3.3 1.5-.8 3.7-2.3 4.9-3.4 3.6-3.2 5.3-4.5 6-4.5.4 0 1.4-.8 2.3-1.8.9-.9 3.3-3 5.3-4.5 4.5-3.4 28.3-27 32-31.7 1.4-1.9 4.2-5.3 6.2-7.5s3.6-4.3 3.6-4.6c0-.3.8-1.5 1.8-2.7.9-1.1 2.5-3 3.5-4.1.9-1.2 1.7-2.8 1.7-3.5 0-.8.5-1.6 1-1.8 1.5-.5-3.1-10.2-6-12.8-.3-.3-2.4-2.8-4.5-5.5-2.2-2.8-5.2-6.2-6.7-7.7-1.6-1.4-2.8-2.9-2.8-3.2 0-1.5-14-16-24.1-24.7-3.3-3-8-7.1-10.2-9.1-2.3-2.1-4.5-3.8-5-3.8-.4 0-2.1-1.4-3.9-3-1.7-1.7-3.5-3-4.1-3-.5 0-2.3-1.1-4.1-2.5-3.8-3.1-4.6-3.6-7.5-5.3-7.3-4.2-9.3-5.2-10.6-5.2-.8 0-1.5-.4-1.5-.8 0-.5-4.2-2.8-9.2-5.1-5.1-2.4-10.6-4.9-12.2-5.7-1.6-.8-4.2-1.4-5.7-1.4s-3-.4-3.3-.9c-.3-.5-3-1.4-5.8-2.1-2.9-.6-6.4-1.6-7.8-2-4.5-1.7-26.7-4-36.2-3.9-5.1.1-14.2.8-20.3 1.6zm-45 49c-.3 1.6-1.1 2.9-1.6 3.1-.5.2-.9 1.4-.9 2.7s-.4 2.7-1 3c-.5.3-1 1.7-1 3.1 0 1.3-.4 2.4-.9 2.4s-1.1 1.5-1.4 3.2c-.3 1.8-1.1 6-1.7 9.3-1.3 6.4-.7 22.6 1 28.2.6 1.8 1.5 5 2.1 7 1.5 5.4 6.5 17 7.9 18.3.3.3 1.3 1.7 2.3 3.3 2.8 4.3 11.2 13.5 15.4 16.7 8.2 6.3 20.3 13 23.7 13 1.3 0 2.6.3 3 .7 4 4 41.2 4 45.2 0 .4-.4 1.7-.7 3-.7 2 0 15.2-6.4 16.4-8 .3-.3 2.5-2 5-3.7 7-4.8 16-14.9 19.7-22.1.9-1.7 2-3.2 2.5-3.2.4 0 .8-.6.8-1.3s.9-3.2 2-5.5c1.1-2.2 2-4.8 2-5.6 0-.8.4-1.7.9-2 2.2-1.4 3.4-29.5 1.7-39.6-.9-5.6-3.1-12.1-5.7-17.2-1.3-2.5-1.1-3.8.4-3.8 1.8 0 6.7 2.4 6.7 3.2 0 .5.6.8 1.4.8.8 0 1.6.3 1.8.7.2.5 2.1 2 4.4 3.6 2.2 1.5 4.9 3.5 6 4.5 1 .9 4.1 3.5 6.9 5.7 2.7 2.2 7.1 6.1 9.8 8.7 2.6 2.7 5.2 4.8 5.7 4.8.6 0 1 .4 1 .9s2.4 3.4 5.3 6.3c7.6 7.9 11.7 13.1 11.7 14.9 0 .8-1.7 3.5-3.7 6-5.2 6.1-27.2 28-30.7 30.4-1.6 1.1-4.4 3.5-6.3 5.3-1.9 1.7-4.1 3.2-4.8 3.2s-1.5.4-1.7.8c-.1.5-2.8 2.5-5.8 4.5-3 2.1-6.4 4.4-7.5 5.3-1.1.8-3 1.7-4.2 2-1.3.4-2.3 1-2.3 1.5s-.9.9-2 .9-2 .3-2 .8c0 .4-1.5 1.3-3.2 2.1-4 1.6-11.3 4.9-15 6.8-1.4.7-3.7 1.3-5 1.3s-2.8.4-3.3.8c-1.4 1.2-8.7 3.2-11.7 3.2-1.3 0-2.9.5-3.4 1-.7.7-8.8 1.1-21.9 1.1-13.1 0-21.2-.4-21.9-1.1-.5-.5-2.1-1-3.4-1-3 0-10.3-2-11.6-3.2-.6-.4-2.2-.8-3.6-.8s-3.5-.7-4.6-1.5c-1-.8-2.5-1.5-3.1-1.5-1.7 0-18.7-8.2-19.1-9.2-.2-.4-1.2-.8-2.2-.8s-2-.4-2.2-.8c-.1-.4-2.5-2.1-5.3-3.7-2.7-1.5-5.7-3.7-6.6-4.7s-2-1.8-2.5-1.8c-2.4 0-23.5-18.1-35-30-11.2-11.6-13.6-15-12.9-18 .4-1.4 1.1-2.7 1.6-2.8.5-.2.9-.8.9-1.4 0-1.7 32.8-33.8 34.5-33.8.4 0 1.2-.6 1.9-1.3.7-.6 2.5-2.1 4-3.2 1.6-1.1 4.8-3.5 7.1-5.3 2.4-1.7 4.9-3.2 5.4-3.2.6 0 1.1-.5 1.1-1 0-.6.6-1 1.3-1 .8 0 2.2-.9 3.3-1.9 1-1.1 3-2 4.3-2 2-.1 2.2.2 1.6 2.6zm44.4 3.9c3.4.7 10.7 8.6 11.6 12.5 1.6 7.7.4 17-2.6 20.3-1.1 1.1-1.9 2.3-1.9 2.6 0 .4-2.1 1.8-4.7 3.1-5.5 2.8-15.3 3.3-19.9.9-4.2-2.2-10.1-8.8-10.8-12.1-.3-1.6-.9-4.2-1.2-5.9-1-4.8 1.6-11.7 6.3-16.5 4-4.2 5.3-4.9 11.3-5.8 2.5-.4 7.3 0 11.9.9z"/>
</svg>
