<?xml version="1.0" encoding="utf-8"?>
<!-- Generator: Adobe Illustrator 16.0.0, SVG Export Plug-In . SVG Version: 6.00 Build 0)  -->
<!DOCTYPE svg PUBLIC "-//W3C//DTD SVG 1.1//EN" "http://www.w3.org/Graphics/SVG/1.1/DTD/svg11.dtd">
<svg version="1.1" id="Layer_1" xmlns="http://www.w3.org/2000/svg" xmlns:xlink="http://www.w3.org/1999/xlink" x="0px" y="0px"
	 width="152px" height="142px" viewBox="0 0 152 142" enable-background="new 0 0 152 142" xml:space="preserve">
<path fill="#C04C9C" d="M29.3,8.56c2.85-0.13,5.73,0.04,8.59,0.02c-0.33,2.02-0.71,4.05-0.87,6.08c-0.36,4.47,1.61,8.32,1.16,12.83
	c-1,9.94-1.06,20.021-0.51,29.99c0.37,6.94-0.52,13.71-0.83,20.62c-8.4-4.279-16.46-9.41-25.07-13.229
	c-1.11,3.73-0.73,7.271-0.78,11.13c0.12,16.49-0.19,33,0.17,49.479c4.2-1.76,7.72-4.291,11.43-6.84
	c7.9-4.649,15.15-10.201,22.86-15.131c0.71,1.03,1.42,2.051,2.13,3.07c-8.21,5.48-16.51,10.76-24.69,16.29
	c-2.01,1.229-3.78,2.569-5.5,4.18c2.55,0.78,4.91,1.04,7.57,0.99c11.34-0.101,22.68,0.06,34.01-0.021
	c0.08,1.141,0.15,2.279,0.23,3.42c-12.31-0.01-24.62,0.061-36.93-0.01c-4.82-0.25-9.52,0.33-14.31-0.369
	C7.5,125.88,7.52,120.7,7.74,115.52C7.79,99.74,7.76,83.939,7.7,68.17c0.1-2.52-0.69-6.31,0.78-8.48c4.16-2.57,8.11-5.42,12.3-7.94
	c2.19-1.55,5.29-3.8,5.18-6.78c0.2-11.96-0.15-23.95,0.13-35.91C27.15,8.86,28.22,8.67,29.3,8.56z"/>
<path fill="#C04C9C" d="M51.62,8.57c-0.02,8.53,0.44,17.03,0.06,25.56c-0.33,6.77,0.3,13.51-0.31,20.25
	c-0.43,4.6,0.51,9.06,0.3,13.67c-0.25,5.94,0.67,11.55-0.7,17.421c-4.65-2.57-9.39-4.961-14.13-7.371
	c0.31-6.91,1.2-13.68,0.83-20.62c-0.55-9.97-0.49-20.05,0.51-29.99c0.45-4.51-1.52-8.36-1.16-12.83c0.16-2.03,0.54-4.06,0.87-6.08
	C42.47,8.53,47.04,8.52,51.62,8.57z"/>
<path fill="#C04C9C" d="M53.28,8.57c5.95-0.09,11.91-0.02,17.86-0.01c-0.25,5.81-0.04,11.53-1.08,17.28
	c-7.33,0.76-13.67,6.54-15.72,13.51c-0.89,3.18-1.67,6.19-1.31,9.53c1.25,6.24,4.53,11.67,9.95,15.11c2.02,1.03,4.41,1.44,6.6,1.95
	c2.48,7.6-0.3,16.5,1.52,24.43c-3.43,2.94-7.38,5.01-10.99,7.71c-4.23,2.811-8.12,5.99-12.53,8.5c-0.71-1.02-1.42-2.04-2.13-3.07
	c5.31-3.449,10.63-6.949,15.81-10.59c-0.14-1.16-0.68-2-1.61-2.529c-2.72-1.891-5.8-3.271-8.68-4.92
	c1.37-5.871,0.45-11.48,0.7-17.421c0.21-4.61-0.73-9.07-0.3-13.67c0.61-6.74-0.02-13.48,0.31-20.25c0.38-8.53-0.08-17.03-0.06-25.56
	C52.17,8.57,52.73,8.57,53.28,8.57z"/>
<path fill="#4D8545" d="M93.359,8.58c-0.489,1.87-1.021,3.74-1.649,5.57c1.55,5.24,0.05,10.06,0.44,15.35
	c0.108,2.26-0.041,4.51-0.18,6.77c-2.762-4.12-6.781-8.32-11.762-9.49c-3.279-1.02-6.75-0.96-10.15-0.94
	c1.04-5.75,0.83-11.47,1.08-17.28C78.55,8.5,85.95,8.51,93.359,8.58z"/>
<path fill="#578F4B" d="M95.27,8.56c5.551-0.13,11.102,0.01,16.65-0.02c0.66,4.91,0.051,9.78,0.42,14.69
	c0.71,9.03-0.42,18.28-0.25,27.33c0.391,4.61,1.03,9.08,0.41,13.71c-0.55,4.13-1,8.14-0.061,12.27
	c-6.681,3.55-13.189,7.51-20.069,10.66c0.14-7.05,0.03-14.12,0.43-21.16c0.08-1.29,0.14-2.57,0.2-3.86
	c-0.91-0.26-1.83-0.51-2.75-0.76c-0.43-2.02-0.859-4.03-1.25-6.05c1.77-1.71,3.82-3.34,4.71-5.69c1.16-4.91-0.41-8.82-1.739-13.41
	c0.139-2.26,0.289-4.51,0.18-6.77c-0.391-5.29,1.109-10.11-0.439-15.35c0.63-1.83,1.16-3.7,1.648-5.57
	C93.99,8.57,94.63,8.57,95.27,8.56z"/>
<path fill="#C04C9C" d="M113.279,8.53c2.9-0.09,5.771,0.13,8.641,0.47c0.2,13.29-0.01,26.59,0.1,39.88
	c3.33,2.39,6.791,4.62,10.271,6.78c2.25,1.4,4.852,2.46,6.432,4.68c0.34,1.84,0.309,3.77,0.318,5.63
	c-0.16,14.67,0,29.35-0.102,44.03c-0.028,3.55,0.041,7.1,0.48,10.641c0.51,3.359-0.34,6.811-0.65,10.289
	c-3.01,0.312-5.99,0.631-9.02,0.59c-11.311-0.1-22.62,0.041-33.93-0.068c0.43-1.15,0.85-2.29,1.279-3.439
	c10.471-0.16,20.979,0.26,31.439-0.221c-1-1.512-1.762-3-3.33-4c-8.029-5.75-16.521-10.83-24.5-16.66
	c0.13-1.229,0.262-2.46,0.391-3.689c8.529,5.621,17.01,11.291,25.479,16.99c2.569,1.699,5.29,3.881,8.26,4.721
	c1.472-1.84,1.12-3.891,1.24-6.11c-0.091-13.681-0.062-27.36-0.04-41.04c-0.03-4.49,0.41-8.82-0.852-13.13
	c-7.938,3.25-15.028,8.069-22.75,11.67c-0.938-4.13-0.488-8.14,0.062-12.27c0.62-4.63-0.021-9.1-0.41-13.71
	c-0.17-9.05,0.96-18.3,0.25-27.33c-0.368-4.91,0.24-9.78-0.42-14.69C112.37,8.54,112.83,8.53,113.279,8.53z"/>
<path fill="#FFFFFF" d="M24.84,53.53c0.09,1.84,0.15,3.67,0.2,5.51c-2.17-0.04-4.34-0.1-6.51-0.19
	C19.27,55.45,21.98,54.7,24.84,53.53z"/>
<path fill="#FFFFFF" d="M122.01,53.89c3.34-0.02,4.721,2.71,6.551,5.02c-1.75,0.04-3.561,0.14-5.301-0.07
	C121.32,57.71,122.13,55.79,122.01,53.89z"/>
<path fill="#FFFFFF" d="M18.86,63.02c1.98-0.01,3.97-0.01,5.95-0.01c0.34,1.42,0.69,2.84,1.05,4.26c-2.28-0.28-4.53-0.62-6.72-1.35
	C19.04,64.96,18.94,63.99,18.86,63.02z"/>
<path fill="#FFFFFF" d="M122.51,63.32c1.461-0.3,2.971-0.4,4.45-0.56c-0.01,1.12-0.01,2.229-0.021,3.35
	c-2.119,0.22-4.229,0.37-6.359,0.25C121.18,65.32,121.83,64.3,122.51,63.32z"/>
<path fill="#FFFFFF" d="M11.77,64.87c8.61,3.82,16.67,8.95,25.07,13.229c4.74,2.41,9.48,4.801,14.13,7.371
	c2.88,1.648,5.96,3.028,8.68,4.92c0.93,0.528,1.47,1.368,1.61,2.528c-5.18,3.642-10.5,7.142-15.81,10.59
	c-7.71,4.931-14.96,10.479-22.86,15.132c-3.71,2.549-7.23,5.08-11.43,6.84C10.8,109,11.11,92.49,10.99,76
	C11.04,72.141,10.66,68.6,11.77,64.87z"/>
<path fill="#FFFFFF" d="M135.189,64.87c1.261,4.31,0.819,8.64,0.851,13.13c-0.021,13.68-0.05,27.359,0.04,41.04
	c-0.12,2.22,0.23,4.271-1.24,6.11c-2.97-0.84-5.689-3.021-8.26-4.721c-8.471-5.699-16.95-11.369-25.48-16.99
	c-5.47-3.641-10.879-7.351-16.42-10.899c2.24-2.431,4.65-4.04,7.69-5.34c6.88-3.15,13.39-7.11,20.069-10.66
	C120.16,72.939,127.25,68.12,135.189,64.87z"/>
<path fill="#C04C9C" d="M69.58,65.94c7.72,0.38,15.49,0.19,23.22,0.1c-0.399,7.04-0.29,14.11-0.43,21.16
	c-3.04,1.3-5.45,2.909-7.69,5.34c5.541,3.55,10.95,7.26,16.42,10.899c-0.129,1.229-0.26,2.461-0.39,3.689
	c-5.8-3.43-11.149-7.439-16.84-11.04c-3.021-1.948-5.851-4.47-9.09-6.028c-1.22-0.041-2.45,0.06-3.68,0.31
	C69.28,82.439,72.06,73.54,69.58,65.94z"/>
<path fill="#FFFFFF" d="M71.1,90.37c1.23-0.25,2.46-0.351,3.68-0.31c3.24,1.56,6.07,4.08,9.09,6.028
	c5.69,3.601,11.04,7.61,16.84,11.04c7.979,5.83,16.47,10.91,24.5,16.66c1.569,1,2.33,2.488,3.33,4
	c-10.46,0.479-20.97,0.061-31.44,0.22c-12.709,0.062-25.418-0.079-38.128,0.011c-11.33,0.08-22.67-0.08-34.01,0.021
	c-2.66,0.05-5.02-0.21-7.57-0.99c1.72-1.61,3.49-2.95,5.5-4.18c8.18-5.53,16.48-10.81,24.69-16.29c4.41-2.51,8.3-5.689,12.53-8.5
	C63.72,95.38,67.67,93.311,71.1,90.37z"/>
<path fill="#C04C9C" d="M58.97,128.02c12.71-0.09,25.42,0.051,38.129-0.01c-0.431,1.15-0.851,2.29-1.279,3.44
	c-12.211,0.01-24.42,0.06-36.62-0.011C59.12,130.3,59.05,129.16,58.97,128.02z"/>
<polygon fill="#C04C9C" points="122,71 122,9 26.34,9 26.34,70 61.75,89.75 66,91.25 72,88.25 82,92 "/>
<path fill="#FFFFFF" d="M68.561,26.84c3.399-0.02,6.869-0.08,10.149,0.94c4.979,1.17,9,5.37,11.761,9.49
	c1.329,4.59,2.899,8.5,1.739,13.41c-0.89,2.35-2.94,3.98-4.71,5.69c-3.32-0.24-6.49-0.43-9.6-1.77c-2.11-1.01-4.66,0.86-6.95,0.72
	c-3.94,0.06-7.24-2.4-9.13-5.72c-0.58-2.44-0.551-5.81-0.021-8.27c1.3-3.82,4.761-5.66,8.69-5.43c3.99-0.32,7.6,0.9,9.609,4.51
	c1.141,3.6,1.45,7.45,2.43,11.12c1.361-0.55,2.66-1.01,3.9-1.8c1.131-8.19-3.609-16.21-11.99-17.71
	c-8.51-1.63-17.77,6.19-17.039,14.99c-0.09,7.85,5.939,14.6,13.83,15.28c5.74,0.95,11.75,0.77,17.52,0.13
	c0.92,0.25,1.84,0.5,2.75,0.76c-0.062,1.29-0.12,2.57-0.2,3.86c-7.729,0.09-15.5,0.28-23.22-0.1c-2.189-0.51-4.58-0.92-6.6-1.95
	c-5.42-3.44-8.701-8.87-9.951-15.11c-0.36-3.34,0.42-6.35,1.31-9.53C54.891,33.38,61.23,27.6,68.561,26.84z"/>
<path fill="#C04C9C" d="M71.561,40.06c1.319,0.64,2.59,1.33,3.879,2.03c0.031,1.97,0.07,3.93,0.101,5.9
	c-2.54,0.99-4.42,3.15-7.05,1.05c-2.92-2.33-1.68-4.71-0.711-7.68C69.029,40.9,70.29,40.46,71.561,40.06z"/>
</svg>
