<svg xmlns="http://www.w3.org/2000/svg" width="448" height="340" viewBox="0 0 448 340">
  <g fill="#fff">
    <path d="M15 13.4l-3 2.8v309.3l2.7 3 2.6 3H48c29.7 0 30.8-.1 33.1-2.1l2.4-2.1.5-33.6.5-33.7 142.3-.3 142.2-.2v32c0 27.8.2 32.5 1.6 35.3.9 1.8 2.2 3.5 2.8 3.9.6.4 14.9.8 31.8.8 32.3 0 30.7.2 34.6-4.4 1.6-1.9 1.8-132.6.2-132.6-.5 0-1-.7-1-1.5s-.9-1.9-1.9-2.5c-1.3-.7-58.4-1-177.5-1H84l-.2-87.4-.3-87.4-2.4-2.1c-2.3-2-3.4-2.1-32.8-2.1H18l-3 2.9z"/>
    <path d="M146 64.5c-1.4.4-5.3 1.6-8.7 2.6-3.5 1-6.3 2.1-6.3 2.6 0 .4-.7.8-1.5.8s-1.5.4-1.5 1c0 .5-.7 1-1.6 1-1.6 0-14.6 12.4-15.8 15-.3.8-1.4 2.8-2.4 4.5-2.3 3.6-4.6 10.8-6.2 19.2-1 5-1 7.6 0 12.5 1.4 7.1 4 16 4.9 16.8.3.3 1.5 2.3 2.5 4.5 2.1 4.3 15 17.5 17.1 17.5.8 0 1.5.4 1.7.8.2.4 3.4 2.1 7.3 3.8 6.6 2.7 7.8 2.9 20.7 2.9 9.6 0 14.1-.4 15-1.3.6-.6 1.9-1.2 2.8-1.2 2.5 0 15.1-7.9 18.9-11.9 5.2-5.4 11.5-15.9 13.4-22.2 2.3-7.6 2.3-24.3 0-31.8-1-3.1-2.8-7.3-4-9.3-1.3-2.1-2.3-4.1-2.3-4.5 0-.5-2.4-3.3-5.3-6.4-5.5-5.9-14.9-12.4-19.4-13.5-1.6-.4-3.2-1-3.8-1.4-2.8-2.1-21.2-3.5-25.5-2zm84.1 1.9l-3.1 2.9v96.3l2.5 2.4 2.4 2.5h101.8c56 0 102.3-.4 102.8-.8 3.4-2.4 4.6-6.4 4.2-13.5-.6-8.5-2.3-19.4-3.6-22.2-.5-1.1-2.1-5.2-3.7-9-5.6-14-12.2-23.6-23.4-34.3-3-2.9-6.7-6-8.2-7-1.6-.9-2.8-2-2.8-2.4 0-.4-.7-.8-1.5-.8s-1.5-.4-1.5-1c0-.5-1.1-1.2-2.5-1.6-1.4-.3-2.5-1-2.5-1.5s-.9-.9-2-.9-2-.5-2-1c0-.6-.6-1-1.2-1-.7 0-3.4-1.1-6-2.4-2.7-1.3-6.7-2.7-9-3.1-2.4-.4-4.7-1.1-5.3-1.5-2.4-1.9-13.5-2.3-71.1-2.7l-61.1-.3-3.2 2.9z"/>
  </g>
</svg>
