<svg xmlns="http://www.w3.org/2000/svg" width="390" height="395" viewBox="0 0 390 395">
  <path fill="#fff" d="M211.09 81.802v-12.82c4.98-1.01 9.518 2.615 11.484 9 .916 2.972.895 6.4 2.4 8.978 1.527 2.616 4.385 4.47 6.714 6.6 2.682 2.45 5.915 4.474 8.014 7.338 2.724 3.72 4.457 2.132 6.485-.246 3.498-4.1 7.025-8.177 10.4-12.374C261.513 82.152 267.013 76.34 271 69.64c5.256-8.836 9.247-18.422 13.85-27.654 4-8.023 7.823-16.153 12.233-23.948 3.07-5.424 12.473-8.424 16.876-6.106 7.79 4.1 11.04 12.01 7.446 19.557-5.56 11.674-11.48 23.18-17.332 34.715-4.138 8.156-8.09 16.436-12.754 24.286-2.827 4.76-6.706 8.935-10.372 13.147-7.146 8.214-14.47 16.274-21.732 24.387-1.187 1.325-2.63 2.462-3.605 3.92-.83 1.243-1.702 2.898-1.52 4.228.115.812 2.18 1.912 3.383 1.93 10.83.148 21.77.996 32.453-.27 6.03-.716 11.703-4.882 17.422-7.727 9.058-4.506 18.006-9.232 27.027-13.812 3.507-1.78 6.965-3.778 10.666-5.028 5.515-1.863 11.09-2.144 15.75 2.364 4.817 4.66 5.31 10.69 2.665 16.014-1.82 3.66-5.775 6.826-9.515 8.853-9.643 5.227-19.707 9.666-29.574 14.48-7.342 3.58-14.562 7.418-21.994 10.798-2.62 1.192-5.693 1.874-8.574 1.918-12.996.2-25.996.018-38.994.165-1.934.02-3.857 1.062-5.785 1.634 1.344 1.17 2.522 2.664 4.062 3.456 14.327 7.375 28.66 14.746 43.142 21.808 2.536 1.237 5.777 1.404 8.696 1.422 20 .117 39.997.032 59.995.08 6.832.016 13.06 4.476 13.887 9.736 1.255 7.985-1.846 14.502-8.678 16.948-2.824 1.01-6.086 1.077-9.15 1.094-20.64.106-41.284-.173-61.916.228-8.668.168-15.272-4.43-22.408-7.83-12.93-6.16-25.637-12.788-38.508-19.077-1.355-.663-3.182-.36-4.79-.504.826 1.308 1.524 2.72 2.502 3.905 3.782 4.584 7.71 9.047 11.476 13.643 5.43 6.628 10.705 13.38 16.153 19.99 8.677 10.53 17.42 21.004 26.177 31.467 5.19 6.2 11.282 11.83 15.465 18.64 4.424 7.206 7.204 15.45 10.452 23.342 6.534 15.876 13.35 31.66 19.146 47.81 3.007 8.374 3.82 15.5-4.96 20.82-4.954 3.003-15.28 1.64-18.044-4.687-3.88-8.884-7.724-17.788-11.35-26.778-5.577-13.827-10.5-27.94-16.64-41.508-2.51-5.548-7.34-10.094-11.344-14.906-7.46-8.97-15.082-17.8-22.654-26.675-.31-.36-.802-.565-1.777-1.23-.822 1.654-1.64 3.147-2.328 4.7-4.943 11.158-10.457 21.993-19.8 30.206-8.926 7.845-19.017 13.288-31.366 12.605-8.227-.454-15.325-3.93-22.073-8.596-12.648-8.745-19.19-21.7-25.2-35.12-.328-.733-.61-1.51-1.07-2.157-.372-.52-.977-.877-1.75-1.537-8.892 10.666-17.447 21.505-26.62 31.793-12.227 13.714-15.71 31.472-22.84 47.533-4.45 10.03-8.067 20.434-12.604 30.42-2.925 6.44-6.714 7.98-15.715 7.272-4.49-.354-7.945-4.043-9.346-9.54-1.933-7.586 1.73-14.004 4.21-20.64 4.183-11.188 8.356-22.39 12.89-33.437 3.918-9.542 7.955-19.074 12.684-28.227 2.45-4.742 6.386-8.76 9.88-12.915 11.236-13.366 22.68-26.56 33.847-39.983 8.305-9.983 16.277-20.243 24.47-30.32.912-1.12 2.454-1.715 3.424-2.803.644-.724.79-1.89 1.16-2.857-1.127-.178-2.5-.865-3.346-.456-9.935 4.807-19.79 9.778-29.67 14.706-7.96 3.97-15.83 8.13-23.93 11.793-2.41 1.09-5.452 1.055-8.207 1.064-22.046.082-44.092.03-66.138.067-6.526.012-11.385-3.613-13.69-8.85-1.87-4.246-2.278-10.327 1.945-13.875 3.158-2.653 7.715-4.933 11.722-5.06 17.314-.543 34.67-.673 51.98-.06 9.653.34 18.097-1.92 26.42-6.467 11.235-6.138 22.776-11.715 34.144-17.613 1.138-.59 1.99-1.736 2.973-2.625-1.365-.64-2.72-1.82-4.093-1.84-11.496-.15-23.016-.504-34.487.054-8.338.406-15.52-2.2-22.628-5.846-13.588-6.97-27.206-13.88-40.79-20.86-2.86-1.47-5.58-3.218-8.442-4.687-4.75-2.437-6.29-8.783-4.34-16.272 1.117-4.287 6.3-7.62 11.428-8.095 6.944-.642 12.22 3.383 17.854 6.105 13.13 6.348 25.983 13.266 39.046 19.756 2.417 1.2 5.28 2.015 7.96 2.08 9.825.243 19.662.17 29.492.006 1.378-.024 3.546-.948 3.892-1.956.4-1.166-.43-3.213-1.38-4.313-9.888-11.465-19.45-23.264-30.025-34.07-9.76-9.974-13.586-23.037-20.22-34.616-4.635-8.087-8.77-16.476-12.825-24.877-1.773-3.675-3.375-7.623-4.01-11.613-1.075-6.745 4.022-13.737 10.776-15.26 7.135-1.61 12.764 2.472 16.27 9.37 8.974 17.664 17.223 35.728 26.92 52.98 4.164 7.405 11.24 13.16 16.91 19.737 2.03 2.356 3.757 4.973 5.735 7.377 2.146 2.608 4.053 3.644 6.522-.104 1.68-2.55 4.134-4.968 6.802-6.407 5.816-3.138 8.44-7.94 10.004-14.1.897-3.528 3.086-6.87 5.278-9.868 1.037-1.418 3.446-1.832 6.146-3.145v14.562c9.973-.003 19.423-.003 29.284-.003z"/>
</svg>
