<svg xmlns="http://www.w3.org/2000/svg" width="300" height="399" viewBox="0 0 300 399">
  <path fill="#fff" d="M59.9 303.5c0 2.2.2 3 .4 1.7.2-1.2.2-3 0-4-.3-.9-.5.1-.4 2.3zm0 10.5c0 3.6.2 5 .4 3.2.2-1.7.2-4.7 0-6.5-.2-1.7-.4-.3-.4 3.3z"/>
  <circle fill="#fff" cx="145.5" cy="72" r="57.5"/>
  <path fill="#fff" d="M275 152.5c-10-11.5-26.8-14.3-26.8-14.3H54.6C27.5 142 14 163 14 163c-3.5 6.5-8 21-8 21v149c-1 9 5.5 20 5.5 20 12 22.5 40.5 29.5 40.5 29.5l106-1c12-1 18.5-13.3 18.5-13.3 5-17.8-1.6-28.7-1.6-28.7-3.6-12-19.9-17.1-19.9-17.1H65V277s.5 11 1.6-.2S77.9 261 77.9 261H210c16.5 1.5 23.3 13.5 23.3 13.5l1.8 108c18.6 2.5 31.994-8.4 40.9-17 14.5-14 17.5-32 17.5-32V199c.5-29.5-18.5-46.5-18.5-46.5zM148.5 239c-19.605 0-35.5-15.894-35.5-35.5 0-19.605 15.895-35.5 35.5-35.5 19.606 0 35.5 15.895 35.5 35.5 0 19.606-15.894 35.5-35.5 35.5z"/>
</svg>
