<?xml version="1.0" encoding="utf-8"?>
<!-- Generator: Adobe Illustrator 16.0.0, SVG Export Plug-In . SVG Version: 6.00 Build 0)  -->
<!DOCTYPE svg PUBLIC "-//W3C//DTD SVG 1.1//EN" "http://www.w3.org/Graphics/SVG/1.1/DTD/svg11.dtd">
<svg version="1.1" id="Layer_1" xmlns="http://www.w3.org/2000/svg" xmlns:xlink="http://www.w3.org/1999/xlink" x="0px" y="0px"
	 width="70.5px" height="65.5px" viewBox="0 0 70.5 65.5" enable-background="new 0 0 70.5 65.5" xml:space="preserve">
<path fill="#FFFFFF" d="M61.384,4.729c-1.628,7.321-2.467,14.833-2.547,22.333c-0.044,6.697,0.586,13.598,2.375,20.066
	c1.175,4.283,2.907,8.396,5.289,12.149c-1.729,1.074-3.708,1.685-5.751,1.676c-3.977,0.003-7.945-2.434-9.068-6.373
	c-0.35,1.121-0.88,2.143-1.688,2.992c-2.466,2.662-6.597,3.537-10.038,2.658c-2.991-0.762-5.611-2.852-6.443-5.904
	c-1.09,3.955-5.086,6.121-8.999,6.141c-3.958,0.051-8.055-2.167-9.169-6.158c-1.057,3.785-4.745,6.45-8.612,6.635
	c-1.634,0.111-3.151-0.285-4.681-0.797c0.07-0.73,0.484-1.445,0.742-2.133c3.452-8.252,7.925-16.105,13.316-23.244
	c6.661-8.794,14.753-16.44,24.331-21.98C46.932,8.99,54.029,6.309,61.384,4.729z"/>
</svg>
