<svg xmlns="http://www.w3.org/2000/svg" width="512" height="512" viewBox="0 0 512 512">
  <path fill="#fff" d="M197.528 283.245c-25.568 29.446-24.312 75.135 2.725 103.322 15.09 15.823 35.313 23.683 55.434 23.683 19.7 0 39.296-7.545 54.28-22.53 6.812-6.81 12.156-14.67 15.823-22.948l99.025-191.974c2.62-5.45-3.038-11.107-8.487-8.488l-191.974 99.026c-9.955 4.4-19.072 11.107-26.826 19.91zm35 27.036c6.392-6.39 14.775-9.64 23.158-9.64s16.766 3.25 23.263 9.64c12.782 12.786 12.782 33.64 0 46.424-6.394 6.392-14.777 9.64-23.265 9.64-8.383 0-16.767-3.248-23.158-9.64-12.89-12.89-12.89-33.638 0-46.422zm228.753 47.47c0-36.255-9.533-71.884-27.662-103.006-7.02-12.156-2.934-27.665 9.222-34.686s27.663-2.935 34.684 9.222C500.054 268.155 512 312.586 512 357.75c0 14.043-11.317 25.36-25.36 25.36-13.937 0-25.36-11.317-25.36-25.36zM0 357.75c0-141.15 114.85-256 256-256 32.8 0 64.76 6.078 94.938 18.234 12.994 5.24 19.28 19.91 14.146 32.903-5.24 12.994-19.91 19.28-32.903 14.146-24.204-9.64-49.88-14.565-76.18-14.565-113.173 0-205.282 92.11-205.282 205.282 0 14.042-11.317 25.358-25.36 25.358C11.318 383.108 0 371.793 0 357.75z"/>
</svg>
