<svg xmlns="http://www.w3.org/2000/svg" width="452" height="397" viewBox="0 0 452 397">
  <g fill="#fff">
    <path d="M269.59 380.82c-4.777 0-9.11.274-13.375-.156-1.38-.14-3.516-2.003-3.69-3.294-.997-7.438-1.62-14.932-2.167-22.422-1.43-19.61-2.705-39.233-4.146-58.843-.506-6.883-1.19-13.76-2.062-20.604-.303-2.362-1.426-4.62-2.174-6.93l-1.896.058c-1.767 5.01-4.16 9.896-5.156 15.053-1.553 8.047-1.818 16.337-3.262 24.41-1.37 7.66-3.554 15.177-5.384 22.755-.116.48-.33.94-.4 1.423-1.375 9.366-2.226 18.847-4.27 28.062-1.443 6.493-1.222 14.164-8.162 18.306-3.585 2.14-7.302 4.062-11.007 5.99-.52.27-1.44.25-1.957-.034-3.89-2.136-7.944-4.066-11.53-6.642-6.256-4.492-5.96-11.173-5.126-17.864.102-.82.21-1.64.344-2.455 1.77-10.66 3.516-21.322 5.328-31.975 1.538-9.043 3.035-18.096 4.77-27.102 1.64-8.505 3.64-16.94 5.347-25.432 1.26-6.263 2.353-12.56 3.433-18.86 1.13-6.6 2.168-13.215 3.227-19.826.82-5.116 8.692-12.012 13.994-12.27 3.08-.15 6.187-.176 9.225-.633 1.57-.236 3.99-1.01 4.295-2.05.47-1.6.088-4.49-1.05-5.34-4.865-3.63-9.594-7.466-16.414-7.442-43.997.154-87.995.216-131.99-.03-9.643-.054-22.213 12.41-22.738 22.397-1.01 19.218-3.385 38.362-5.12 57.545-.4 4.442-.334 8.93-.77 13.37-1.128 11.476-2.416 22.937-3.645 34.404-.053.492-.185.98-.22 1.472-1.02 14.3-2.03 28.6-3.052 42.897-.032.48-.173.95-.325 1.742h-16.25c1.14-10.43 2.276-20.84 3.435-31.246.07-.647.446-1.263.488-1.904 1.028-15.512 1.824-31.043 3.093-46.535 1.427-17.4 3.28-34.767 4.94-52.15.36-3.787 1.123-7.6.95-11.363-.36-7.868.897-15.36 3.15-22.89 1.93-6.45.865-7.372-5.94-7.632-.815-.03-1.63-.13-3.633-.295 0-7.404-.137-14.77.06-22.123.095-3.61 3.076-3.118 5.53-3.118 40 .002 79.996.004 119.994 0 30.833 0 61.664-.02 92.496-.007 6.958.003 6.96.05 6.968 6.972.004 4.167-.145 8.34.04 12.498.185 4.12-1.244 6.396-5.677 6.12-.982-.063-1.994.075-2.973.24-3.816.645-4.882 2.678-3.303 6.28 3.776 8.616 3.73 8.453 13.928 8.248 7.632-.15 15.274.337 22.91.36 8.483.028 11.296-4.545 8.33-12.666-2.127-5.822-3.56-11.898-5.69-17.72-3.426-9.373-6.91-18.743-10.946-27.86-1.177-2.664-1.122-3.843.733-5.92 7.824-8.757 15.59-17.58 23.015-26.675 2.87-3.516 5.03-7.69 7.073-11.784 4.368-8.744 3.087-18.64-4.166-25.18-10.585-9.546-20.858-8.457-30.3 1.213-6.04 6.187-10.392 14.025-15.72 21.43-.568-.65-1.405-1.16-1.49-1.775-1.644-11.74 4.165-25.784 13.213-32.87 7.694-6.027 17.062-6.854 25.343-4.498 11.973 3.403 22.437 10.3 28.982 21.862 5.068 8.953 11.008 17.42 15.943 26.44 3.498 6.39 6.145 13.272 8.854 20.06 4.054 10.16 8.003 20.373 11.65 30.686 1.737 4.913 2.966 10.054 3.915 15.187 1.883 10.188 4.7 20.283 3.443 30.854-1.273 10.693-5.178 20.158-12.805 27.86-6.768 6.834-15.58 8.77-24.675 9.05-12.155.37-24.33.09-36.495.09-9.898 0-19.798-.027-29.697.012-6.403.024-7.282 1.22-7.492 7.54-.396 11.983.908 23.708 3.54 35.41 1.073 4.778.128 9.97.603 14.928 1.837 19.19 1.59 38.59 5.716 57.56.343 1.577.045 3.293.045 5.63z"/>
    <path d="M359.332 377.704c-20.996 0-41.992-.077-62.987.07-3.833.026-5.823-.94-5.072-5.05 1.796-9.843 3.632-19.678 5.428-29.52.327-1.784.546-3.588.81-5.383 2.23-15.065 4.374-30.146 6.738-45.19.757-4.82 1.834-9.633 3.36-14.25.37-1.12 3.094-2.064 4.74-2.073 22.83-.13 45.658-.078 68.487-.075 8.33.002 16.664.057 24.994-.048 3.066-.038 4.8.514 5.192 4.237.962 9.096 2.24 18.18 3.886 27.178 1.547 8.46 3.875 16.775 5.55 25.216.638 3.22.05 6.678.655 9.908 1.846 9.832 3.834 19.645 6.11 29.383.985 4.207.105 5.704-4.402 5.67-21.16-.156-42.323-.07-63.485-.07zM242.154 169.156c-11.928-1.008-20.117-6.358-26.59-15.436-6.463-9.063-9.704-19.646-11.768-29.87-2.913-14.432-2.954-29.523-3.18-44.348-.044-2.98 4.037-7.505 7.19-8.66 3.612-1.323 8.348-2.02 12.42 1.84 4.555 4.316 5.605 8.986 5.788 14.965.312 10.2 1.172 20.48 3.026 30.5 1.183 6.387 4.263 12.51 7.05 18.49 3.617 7.757 11.568 4.778 16.88-.05 10.42-9.466 19.444-20.1 26.907-32.173 2.437-3.942 5.994-8.326 11.946-8.252 10.524.13 16.503 11.427 11.558 20.072-4.047 7.077-9.295 13.5-14.314 19.98-3.79 4.895-7.597 9.95-12.226 13.983-6.736 5.867-13.88 11.443-21.52 16.02-3.846 2.303-9.175 2.128-13.166 2.94z"/>
    <path d="M234.346 93.305c-.07-8.01.13-15.014-3.91-21.487-3.7-5.934-8.517-9.313-15.357-9.99-8.826-.87-15.734 2.272-20.745 9.69-1.102 1.633-2.828 2.844-4.266 4.248-1.296-1.536-3.213-2.877-3.774-4.646-1.908-6.027-5.1-12.354-4.597-18.298 1.19-14.083 6.066-27.12 19.51-34.475 6.045-3.31 12.713-5.502 19.163-8.036 1.16-.454 2.727-.426 3.953-.08 15 4.228 28.895 9.42 35.98 25.54 6.66 15.158 4.725 29.11-3.957 42.018-3.926 5.836-9.874 10.89-17.29 13.104-1.335.4-2.528 1.276-4.715 2.415zm-46.776 65.87v10.205c-4.928.483-9.8 1.303-14.686 1.376-12.993.193-25.992.066-38.988.066-21.708 0-43.417.082-65.124-.124-2.296-.02-5.484-1.146-6.593-2.845-.985-1.507.16-4.576.763-6.85.206-.772 1.562-1.564 2.513-1.758 5.92-1.203 7.07-4.504 4.33-10.274-2.326-4.892-3.824-10.183-5.61-15.324-1.074-3.084-1.908-6.252-3.01-9.324-2.625-7.31-5.447-14.548-7.997-21.882-2.78-8-5.254-16.11-8.04-24.107-1.6-4.583-3.77-8.97-5.3-13.573-2.058-6.175-4.074-12.398-5.49-18.74-1.06-4.75 4.08-3.87 6.41-5.285.66-.402 4.047 1.937 4.737 3.613 3.554 8.645 6.725 17.45 9.843 26.268 1.2 3.384 1.85 6.96 2.844 10.42 2.195 7.64 4.14 15.37 6.758 22.86 3.643 10.425 7.892 20.635 11.716 30.997 2.368 6.415 4.65 12.88 6.545 19.443 1.16 4.02 3.498 4.917 7.322 4.902 30.158-.114 60.316-.063 90.475-.063h6.582z"/>
  </g>
</svg>
