<svg xmlns="http://www.w3.org/2000/svg" width="408" height="417" viewBox="0 0 408 417">
  <g fill="#fff">
    <path d="M159.757 292.122c-.69.4-.828.546-.977.558-10.805.852-11.02.872-9.96 11.377 1.796 17.817 4.112 35.584 5.76 53.414.673 7.275.177 14.657.21 21.99.015 3.72.15 7.444.01 11.16-.383 10.156-11.263 13.51-18.584 11.63-8.497-2.176-11.797-7.3-12.08-16.31-.504-16.15-.707-32.34-2.083-48.425-1.172-13.697-3.758-27.277-5.85-40.89-.6-3.913-5.67-5.2-14.417-3.752-3.625.6-4.174 3.16-3.613 6.316.283 1.59.57 3.22.517 4.822-.59 17.894-.696 35.828-2.092 53.66-.84 10.73-3.467 21.353-5.75 31.924-2.147 9.938-12.64 14.085-21.384 8.835-6.486-3.893-8.597-10.21-7.49-18.125 2.07-14.812 3.696-29.696 5.13-44.586.775-8.064.973-16.2 1.042-24.31.044-5.103-.342-10.264-1.186-15.29-.22-1.306-2.81-2.987-4.435-3.14-4.627-.427-9.327-.316-13.983-.102-3.347.153-4.14-1.278-4.37-4.39-.85-11.437 3.06-21.77 7.015-32.096 6.613-17.26 16.45-32.803 25.74-48.672 3.677-6.284 5.757-13.54 8.273-20.46 3.53-9.703 6.793-19.503 10.146-29.27.4-1.168.648-2.39.03-4.64-2.585 1.41-5.303 2.624-7.733 4.266-13.238 8.94-26.406 17.984-39.597 26.994-3.146 2.15-10.886 1.616-13.884-.96-9.444-8.115-9.844-19.976.05-27.25 11.853-8.718 24.345-16.585 36.734-24.55 11.34-7.29 22.894-14.253 34.39-21.3 6.506-3.99 12.896-8.227 19.676-11.692 10.376-5.306 24.85-2.148 32.792 6.67 8.86 9.842 18.358 19.113 27.68 28.53 3.857 3.896 8.08 7.425 11.943 11.313 2.304 2.32 4.05 2.21 6.226-.117 6.807-7.274 14.18-14.07 20.49-21.747 8.055-9.8 22.478-7.202 28.247 1.077 1.67 2.396 2.803 2.957 5.572 1.84 9.43-3.797 18.992-7.265 28.506-10.854 4.2-1.585 8.4-3.16 13.096-4.926v10.388c-16.396 5.705-30.375 15.43-42.023 27.972-4.846 5.22-7.342 12.74-10.475 19.416-6.543 13.946-12.777 28.038-19.207 42.04-.576 1.255-1.64 2.287-3.55 3.023 2.112-16.3 4.226-32.602 6.34-48.902l-1.145-.647c-5.26 4.658-10.41 9.445-15.81 13.934-3.977 3.304-7.75 6.79-13.628 7.056-6.637.3-10.658-3.657-14.755-7.565-8.837-8.428-17.457-17.082-26.167-25.644-2.882-2.832-5.1-2.516-6.228.967-3.88 11.99-7.88 23.944-11.457 36.02-.92 3.106-1.152 6.763-.51 9.924 3.686 18.155 7.886 36.206 11.6 54.356 2.654 12.99 4.82 26.076 7.21 39.146z"/>
    <path d="M335.57 192.91c-1.664 1.39-3.102 2.108-3.832 3.27-10.78 17.154-18.383 35.684-25.308 54.72-9.466 26.023-12.077 52.748-10.354 79.887 1.09 17.165 4.53 34.195 7.24 51.234.994 6.25 1.03 11.985-4.414 16.13-5.482 4.17-11.808 4.807-18.27 2.76-8.676-2.75-12.116-9.65-13.238-17.97-2.154-15.966-4.525-31.918-6.022-47.95-1.047-11.21-1.187-22.55-.976-33.82.135-7.19 1.656-14.352 2.535-21.53.164-1.312.307-2.64.32-3.96.033-2.918.87-6.754-3.186-7.17-1.854-.19-4.535 1.89-5.904 3.663-13.114 16.99-21.435 36.11-26.65 56.976-4.816 19.256-4.74 38.645-4.692 58.16.023 9.653-6.274 16.004-16.45 16.68-9.746.648-17.027-5.25-18.157-14.553-2.19-18.045-.884-35.905 1.82-53.83 3.194-21.164 9.37-41.3 19.236-60.214 8.372-16.05 18-32.033 33.04-42.05 11.243-7.484 11.54-18.99 16.772-28.625 6.12-11.27 11.038-23.214 17.45-34.303 6.634-11.474 13.933-22.65 21.9-33.235 5.31-7.058 11.937-13.27 18.645-19.09 6.554-5.688 22.398-5.2 30.1.027 6.275 4.26 12.252 8.877 14.536 16.563 1.014 3.414 1.863 6.985 2.035 10.522.89 18.337 4.54 36.187 10.002 53.6 4.553 14.518 9.91 28.8 15.357 43.015 4.75 12.397 2.742 20.994-7.312 27.62-9.004 5.933-18.687 3.078-22.466-6.975-6.21-16.518-12.25-33.103-18.106-49.748-2.16-6.144-3.6-12.542-5.647-19.804zm17.688-87.65c-19.727-.463-39.02-15.458-36.022-41.708 1.854-16.23 15.384-31.007 35.075-31.02 22.818-.015 36.79 16.952 36.837 35.25.065 24.348-17.335 36.37-35.888 37.478zM191.775 54.448c.777 18.13-14.995 34.5-34.352 34.257-20.32-.254-33.938-15.492-34.386-34.186-.48-19.974 15.75-35.288 34.683-35.29 19.667-.006 35.387 17.585 34.055 35.217z"/>
  </g>
</svg>
